<svg width="188" height="88" viewBox="0 0 188 88" fill="none" xmlns="http://www.w3.org/2000/svg">
<path d="M36.2061 17.4983C28.0878 16.302 21.6407 17.4848 16.6024 19.9077M36.2061 44.422H1.65784C-0.570125 43.2128 2.48862 26.6948 16.6024 19.9077M1.65784 77.608C1.65784 77.608 1.10054 85.1216 5.001 87H36.2061M2.11446 72.5989C3.22892 72.5989 8.24398 76.5098 13.259 77.608C21.6175 75.8837 26.1758 72.5989 28.4048 72.5989C30.6337 72.5989 36.2061 72.5989 36.2061 72.5989M1.65784 53.1888C2.77222 53.1888 4.9006 48.8059 7.68675 48.8059C10.4729 48.8059 11.0301 53.1888 14.9307 53.1888C18.8313 53.1888 18.9319 48.8059 21.718 48.8059C24.5041 48.8059 25.5181 53.1888 27.747 53.1888C29.9759 53.1888 31.1909 48.8059 33.4198 48.8059C35.6487 48.8059 36.2061 48.8059 36.2061 48.8059M36.2061 57.5718C36.2061 57.5718 5.55837 57.5718 3.88668 57.5718C2.21499 57.5718 1.65784 68.216 3.88668 68.216C6.11552 68.216 36.2061 68.216 36.2061 68.216M138.078 17.4983H186L161.482 53.1888L186 87H119.133M16.6024 19.9077L9.35843 6.38293L16.6024 2V6.38293L19.9458 8.26133C19.9458 8.26133 17.1596 10.7659 16.6024 10.7659" stroke="#F7F7F7" stroke-width="2"/>
<path d="M45.1133 42.7842H49.8916C50.5273 42.7773 51.1426 42.6782 51.7373 42.4868C52.3389 42.2954 52.8687 42.0186 53.3267 41.6562C53.7847 41.3008 54.1504 40.8564 54.4238 40.3232C54.6973 39.79 54.8306 39.1748 54.8237 38.4775C54.8237 38.0332 54.7554 37.6196 54.6187 37.2368C54.4888 36.854 54.3042 36.5088 54.0649 36.2012C53.8394 35.9209 53.5522 35.6646 53.2036 35.4321C52.855 35.1997 52.4927 35.0391 52.1167 34.9502V34.9194C52.479 34.7622 52.7866 34.5947 53.0396 34.417C53.2993 34.2393 53.5352 34.0205 53.7471 33.7607C53.9521 33.5078 54.1128 33.2207 54.229 32.8994C54.3521 32.5781 54.417 32.2227 54.4238 31.833C54.4307 31.1357 54.2974 30.5376 54.0239 30.0386C53.7505 29.5396 53.3848 29.1294 52.9268 28.8081C52.4688 28.4868 51.9458 28.251 51.3579 28.1006C50.77 27.9434 50.1685 27.8613 49.5532 27.8545H45.1133V42.7842ZM47.0205 35.8013H50.0454C50.4487 35.8149 50.8247 35.8833 51.1733 36.0063C51.522 36.1294 51.8262 36.3037 52.0859 36.5293C52.3457 36.7617 52.5474 37.042 52.6909 37.3701C52.8413 37.6982 52.9131 38.0742 52.9062 38.498C52.9062 38.915 52.8242 39.2876 52.6602 39.6157C52.5029 39.9438 52.2876 40.2207 52.0142 40.4463C51.7407 40.6719 51.4263 40.8496 51.0708 40.9795C50.7153 41.1025 50.3394 41.1675 49.9429 41.1743H47.0205V35.8013ZM47.0205 34.2222V29.4746H49.6147C49.9839 29.4814 50.3428 29.5293 50.6914 29.6182C51.0469 29.707 51.3613 29.8438 51.6348 30.0283C51.9014 30.2197 52.1133 30.4624 52.2705 30.7563C52.4346 31.0503 52.5166 31.4058 52.5166 31.8228C52.5166 32.2124 52.4346 32.5542 52.2705 32.8481C52.1064 33.1421 51.8911 33.3882 51.6245 33.5864C51.3579 33.7915 51.0537 33.9487 50.7119 34.0581C50.3701 34.1606 50.0215 34.2153 49.666 34.2222H47.0205ZM67.9582 27.8545H66.1227L66.092 37.9648C66.0783 38.4092 66.0065 38.8364 65.8766 39.2466C65.7467 39.6567 65.5588 40.019 65.3127 40.3335C65.0597 40.6548 64.7487 40.9111 64.3796 41.1025C64.0104 41.2871 63.5832 41.3794 63.0978 41.3794C62.6125 41.3794 62.1818 41.2837 61.8058 41.0923C61.4367 40.9009 61.1291 40.6479 60.883 40.3335C60.63 40.019 60.4352 39.6567 60.2985 39.2466C60.1686 38.8364 60.1003 38.4092 60.0934 37.9648L60.0524 27.8545H58.2477L58.2272 37.9648C58.234 38.6621 58.3571 39.3184 58.5963 39.9336C58.8356 40.542 59.1671 41.0718 59.591 41.5229C60.0148 41.981 60.5241 42.3398 61.1188 42.5996C61.7135 42.8594 62.3732 42.9893 63.0978 42.9893C63.8088 42.9893 64.4616 42.8594 65.0563 42.5996C65.651 42.333 66.1637 41.9707 66.5944 41.5127C67.0251 41.0615 67.3634 40.5317 67.6095 39.9233C67.8556 39.3149 67.9787 38.6621 67.9787 37.9648L67.9582 27.8545ZM76.9808 36.6934L79.9134 42.7842H81.9129L81.9232 42.6611L78.7547 36.2832C79.1649 36.1055 79.5408 35.8901 79.8826 35.6372C80.2244 35.3843 80.5184 35.0938 80.7645 34.7656C81.0106 34.4375 81.202 34.0718 81.3387 33.6685C81.4822 33.2651 81.554 32.8208 81.554 32.3354C81.554 31.5835 81.4207 30.9307 81.1541 30.377C80.8944 29.8164 80.5355 29.3516 80.0775 28.9824C79.6126 28.6133 79.0726 28.3364 78.4573 28.1519C77.8421 27.9673 77.1859 27.8682 76.4886 27.8545H72.1102V42.7842H73.9969V36.6934H76.9808ZM73.9969 35.1348V29.4131H76.4886C76.9466 29.4199 77.367 29.4849 77.7498 29.6079C78.1395 29.731 78.4744 29.9121 78.7547 30.1514C79.035 30.3975 79.2537 30.7017 79.411 31.064C79.5682 31.4194 79.6468 31.8364 79.6468 32.3149C79.6468 32.7661 79.5648 33.166 79.4007 33.5146C79.2366 33.8564 79.0145 34.147 78.7342 34.3862C78.4471 34.6255 78.1155 34.8101 77.7396 34.9399C77.3636 35.063 76.9637 35.1279 76.5399 35.1348H73.9969ZM95.1499 40.8257L95.1191 35.3501H90.2793V36.9497H93.3144L93.2939 40.3027C93.1367 40.5283 92.9419 40.7129 92.7095 40.8564C92.477 40.9932 92.2275 41.1025 91.9609 41.1846C91.6943 41.2666 91.4175 41.3213 91.1304 41.3486C90.8501 41.376 90.5801 41.3862 90.3203 41.3794C89.8691 41.3726 89.4658 41.2939 89.1103 41.1436C88.7549 40.9863 88.4438 40.7778 88.1772 40.5181C87.9038 40.2583 87.6714 39.9575 87.48 39.6157C87.2886 39.2739 87.1313 38.9116 87.0083 38.5288C86.8852 38.146 86.7929 37.7563 86.7314 37.3599C86.6767 36.9565 86.646 36.5669 86.6391 36.1909V34.4375C86.6391 34.0684 86.6631 33.6855 86.7109 33.2891C86.7588 32.8926 86.8374 32.5029 86.9468 32.1201C87.0561 31.7373 87.1963 31.375 87.3672 31.0332C87.5381 30.6846 87.7534 30.3804 88.0132 30.1206C88.2729 29.8608 88.5771 29.6558 88.9258 29.5054C89.2744 29.3481 89.6743 29.2695 90.1255 29.2695C90.5971 29.2695 91.0107 29.3447 91.3662 29.4951C91.7217 29.6387 92.0293 29.8403 92.289 30.1001C92.542 30.3599 92.7471 30.6743 92.9043 31.0435C93.0615 31.4058 93.1777 31.8022 93.2529 32.2329H95.1294C95.0679 31.5356 94.9038 30.9067 94.6372 30.3462C94.3706 29.7788 94.0185 29.2935 93.581 28.8901C93.1435 28.4937 92.6308 28.1895 92.0429 27.9775C91.4551 27.7588 90.8125 27.6494 90.1152 27.6494C89.4863 27.6494 88.9189 27.7417 88.4131 27.9263C87.9072 28.1108 87.456 28.3604 87.0596 28.6748C86.6562 28.9961 86.311 29.3755 86.0239 29.813C85.7368 30.2437 85.4975 30.7119 85.3061 31.2178C85.1147 31.7236 84.9712 32.2534 84.8755 32.8071C84.7866 33.354 84.7388 33.9043 84.7319 34.458V36.1909C84.7388 36.7515 84.7934 37.3086 84.896 37.8623C85.0054 38.4092 85.166 38.9321 85.3779 39.4312C85.583 39.937 85.8393 40.4053 86.147 40.8359C86.4546 41.2666 86.8135 41.6392 87.2236 41.9536C87.6338 42.2749 88.0952 42.5278 88.6079 42.7124C89.1274 42.8901 89.6948 42.9824 90.31 42.9893C90.9184 42.9961 91.4995 42.9277 92.0532 42.7842C92.6069 42.6475 93.123 42.4355 93.6015 42.1484C93.8818 41.9844 94.1518 41.793 94.4116 41.5742C94.6714 41.3486 94.9175 41.0991 95.1499 40.8257ZM108.315 27.8545H106.48L106.449 37.9648C106.435 38.4092 106.363 38.8364 106.234 39.2466C106.104 39.6567 105.916 40.019 105.67 40.3335C105.417 40.6548 105.106 40.9111 104.736 41.1025C104.367 41.2871 103.94 41.3794 103.455 41.3794C102.969 41.3794 102.539 41.2837 102.163 41.0923C101.794 40.9009 101.486 40.6479 101.24 40.3335C100.987 40.019 100.792 39.6567 100.655 39.2466C100.526 38.8364 100.457 38.4092 100.45 37.9648L100.409 27.8545H98.6046L98.5841 37.9648C98.591 38.6621 98.714 39.3184 98.9533 39.9336C99.1925 40.542 99.5241 41.0718 99.9479 41.5229C100.372 41.981 100.881 42.3398 101.476 42.5996C102.07 42.8594 102.73 42.9893 103.455 42.9893C104.166 42.9893 104.818 42.8594 105.413 42.5996C106.008 42.333 106.521 41.9707 106.951 41.5127C107.382 41.0615 107.72 40.5317 107.966 39.9233C108.213 39.3149 108.336 38.6621 108.336 37.9648L108.315 27.8545ZM120.609 35.8833V34.2734H114.374V29.4746H121.552V27.8545H112.477V42.7842H121.644V41.1743H114.374V35.8833H120.609ZM130.79 36.6934L133.723 42.7842H135.722L135.732 42.6611L132.564 36.2832C132.974 36.1055 133.35 35.8901 133.692 35.6372C134.034 35.3843 134.328 35.0938 134.574 34.7656C134.82 34.4375 135.011 34.0718 135.148 33.6685C135.291 33.2651 135.363 32.8208 135.363 32.3354C135.363 31.5835 135.23 30.9307 134.963 30.377C134.704 29.8164 134.345 29.3516 133.887 28.9824C133.422 28.6133 132.882 28.3364 132.267 28.1519C131.651 27.9673 130.995 27.8682 130.298 27.8545H125.919V42.7842H127.806V36.6934H130.79ZM127.806 35.1348V29.4131H130.298C130.756 29.4199 131.176 29.4849 131.559 29.6079C131.949 29.731 132.284 29.9121 132.564 30.1514C132.844 30.3975 133.063 30.7017 133.22 31.064C133.377 31.4194 133.456 31.8364 133.456 32.3149C133.456 32.7661 133.374 33.166 133.21 33.5146C133.046 33.8564 132.824 34.147 132.543 34.3862C132.256 34.6255 131.925 34.8101 131.549 34.9399C131.173 35.063 130.773 35.1279 130.349 35.1348H127.806Z" fill="#F7F7F7"/>
<path d="M54.9775 61.0312V59.7188C54.9707 59.1719 54.9229 58.6182 54.834 58.0576C54.7451 57.4902 54.6118 56.9468 54.4341 56.4272C54.2495 55.9077 54.0137 55.4224 53.7266 54.9712C53.4463 54.5132 53.1113 54.1167 52.7217 53.7817C52.3252 53.4468 51.8706 53.1836 51.3579 52.9922C50.8521 52.7939 50.2812 52.6948 49.6455 52.6948C49.0098 52.6948 48.4355 52.7939 47.9229 52.9922C47.417 53.1836 46.9692 53.4468 46.5796 53.7817C46.1831 54.1235 45.8447 54.5234 45.5645 54.9814C45.2842 55.4326 45.0518 55.918 44.8672 56.4375C44.6826 56.957 44.5459 57.4971 44.457 58.0576C44.3682 58.6182 44.3203 59.1719 44.3135 59.7188V61.0312C44.3203 61.5781 44.3682 62.1318 44.457 62.6924C44.5459 63.2461 44.6826 63.7827 44.8672 64.3022C45.0518 64.8218 45.2876 65.3105 45.5747 65.7686C45.8618 66.2197 46.2036 66.6128 46.6001 66.9478C46.9897 67.2827 47.4375 67.5493 47.9434 67.7476C48.4492 67.939 49.02 68.0347 49.6558 68.0347C49.9019 68.0347 50.1377 68.0176 50.3633 67.9834C50.5957 67.9561 50.8179 67.9116 51.0298 67.8501L53.9829 70.3521L55.2852 69.1113L52.7114 66.9683C53.1079 66.6333 53.4463 66.2402 53.7266 65.7891C54.0137 65.3311 54.2495 64.8423 54.4341 64.3228C54.6118 63.8032 54.7451 63.2632 54.834 62.7026C54.9229 62.1421 54.9707 61.585 54.9775 61.0312ZM53.0908 59.6982V61.0312C53.084 61.4072 53.0601 61.8003 53.019 62.2104C52.9849 62.6138 52.9199 63.0137 52.8242 63.4102C52.7217 63.8066 52.5884 64.1826 52.4243 64.5381C52.2603 64.8936 52.0518 65.2046 51.7988 65.4712C51.5459 65.7446 51.2417 65.9634 50.8862 66.1274C50.5376 66.2847 50.1274 66.3633 49.6558 66.3633C49.1909 66.3633 48.7808 66.2847 48.4253 66.1274C48.0767 65.9634 47.7759 65.7446 47.5229 65.4712C47.27 65.1978 47.0581 64.8833 46.8872 64.5278C46.7231 64.1724 46.5898 63.7964 46.4873 63.3999C46.3848 63.0034 46.3096 62.6035 46.2617 62.2002C46.2207 61.79 46.2002 61.4004 46.2002 61.0312V59.6982C46.2002 59.3291 46.2207 58.9429 46.2617 58.5396C46.3096 58.1294 46.3848 57.7261 46.4873 57.3296C46.5898 56.9399 46.7231 56.5674 46.8872 56.2119C47.0581 55.8564 47.27 55.542 47.5229 55.2686C47.7759 55.002 48.0767 54.79 48.4253 54.6328C48.7739 54.4688 49.1807 54.3867 49.6455 54.3867C50.1172 54.3867 50.5273 54.4653 50.876 54.6226C51.2314 54.7798 51.5356 54.9917 51.7886 55.2583C52.0415 55.5317 52.25 55.8462 52.4141 56.2017C52.585 56.5571 52.7217 56.9297 52.8242 57.3193C52.9199 57.7158 52.9849 58.1191 53.019 58.5293C53.0601 58.9326 53.084 59.3223 53.0908 59.6982ZM67.9582 52.8999H66.1227L66.092 63.0103C66.0783 63.4546 66.0065 63.8818 65.8766 64.292C65.7467 64.7021 65.5588 65.0645 65.3127 65.3789C65.0597 65.7002 64.7487 65.9565 64.3796 66.1479C64.0104 66.3325 63.5832 66.4248 63.0978 66.4248C62.6125 66.4248 62.1818 66.3291 61.8058 66.1377C61.4367 65.9463 61.1291 65.6934 60.883 65.3789C60.63 65.0645 60.4352 64.7021 60.2985 64.292C60.1686 63.8818 60.1003 63.4546 60.0934 63.0103L60.0524 52.8999H58.2477L58.2272 63.0103C58.234 63.7075 58.3571 64.3638 58.5963 64.979C58.8356 65.5874 59.1671 66.1172 59.591 66.5684C60.0148 67.0264 60.5241 67.3853 61.1188 67.645C61.7135 67.9048 62.3732 68.0347 63.0978 68.0347C63.8088 68.0347 64.4616 67.9048 65.0563 67.645C65.651 67.3784 66.1637 67.0161 66.5944 66.5581C67.0251 66.1069 67.3634 65.5771 67.6095 64.9688C67.8556 64.3604 67.9787 63.7075 67.9787 63.0103L67.9582 52.8999ZM80.2518 60.9287V59.3188H74.0174V54.52H81.1951V52.8999H72.1204V67.8296H81.2874V66.2197H74.0174V60.9287H80.2518ZM93.7041 60.9287V59.3188H87.4697V54.52H94.6474V52.8999H85.5727V67.8296H94.7397V66.2197H87.4697V60.9287H93.7041ZM108.295 67.8296V52.8999H106.377L106.346 64.0356L100.553 52.8999H98.6251V67.8296H100.543L100.573 56.6733L106.367 67.8296H108.295Z" fill="#F7F7F7"/>
<path d="M28.4415 25.167C28.4415 26.2044 27.1358 27.0454 26.2126 27.0454C25.2893 27.0454 23.9742 26.5721 24.5409 25.167C24.9843 24.0676 25.8465 23.2886 26.7698 23.2886C27.693 23.2886 28.4415 24.1296 28.4415 25.167Z" fill="#F7F7F7"/>
<path d="M17.2969 30.1758C17.2969 31.2132 15.9913 32.0542 15.068 32.0542C14.1448 32.0542 12.8297 31.5809 13.3963 30.1758C13.8397 29.0764 14.702 28.2974 15.6253 28.2974C16.5485 28.2974 17.2969 29.1384 17.2969 30.1758Z" fill="#F7F7F7"/>
<path d="M20.6402 37.6894C20.6402 38.7268 19.3345 39.5678 18.4113 39.5678C17.488 39.5678 16.1729 39.0946 16.7396 37.6894C17.183 36.59 18.0453 35.811 18.9685 35.811C19.8918 35.811 20.6402 36.652 20.6402 37.6894Z" fill="#F7F7F7"/>
<path d="M30.67 33.9326C30.67 34.97 29.3643 35.811 28.4411 35.811C27.5178 35.811 26.2027 35.3377 26.7694 33.9326C27.2128 32.8332 28.0751 32.0542 28.9983 32.0542C29.9215 32.0542 30.67 32.8952 30.67 33.9326Z" fill="#F7F7F7"/>
</svg>
