<svg width="65" height="38" viewBox="0 0 65 38" fill="none" xmlns="http://www.w3.org/2000/svg">
<path fill-rule="evenodd" clip-rule="evenodd" d="M58.3705 0.467376C57.3878 0.660858 56.8491 0.841703 56.1416 1.21568C55.14 1.7451 54.3989 2.44579 53.7428 3.48373C53.539 3.80613 53.2212 4.48822 53.074 4.91918C52.983 5.18546 52.7801 6.54344 52.6753 7.58789C52.5501 8.83469 52.5131 10.3603 52.5665 12.0815C52.5939 12.9665 52.6267 13.7542 52.6394 13.832C52.6618 13.9706 52.6592 13.9738 52.5032 13.9983C52.4157 14.0121 52.1766 14.0235 51.9719 14.0238C51.4097 14.0244 50.4651 14.0896 48.5053 14.263C45.8923 14.4942 44.6092 14.6611 44.1155 14.8342C43.98 14.8817 43.9217 14.9294 43.8781 15.0284C43.8037 15.1978 43.8046 15.814 43.8797 16.1126C43.9242 16.2896 43.9285 16.4883 43.8999 17.0545C43.88 17.4492 43.8446 18.1607 43.8212 18.6356C43.7978 19.1104 43.7509 20.7352 43.7168 22.2462C43.6489 25.2639 43.5861 27.0614 43.5317 27.5443C43.4267 28.4774 43.3148 29.329 43.2789 29.4674C43.2096 29.7348 43.2094 29.7344 43.4489 29.8278C43.7128 29.9306 44.1129 29.9503 44.1881 29.8642C44.2143 29.8342 44.2622 29.6885 44.2947 29.5404C44.3728 29.1835 44.5856 27.282 44.6629 26.2492C44.7429 25.1823 44.8837 23.2181 44.9294 22.535C44.9553 22.1466 44.9836 21.9746 45.0325 21.9082C45.0697 21.8578 45.1 21.7717 45.1 21.7169C45.1 21.662 45.1402 21.5467 45.1894 21.4607C45.2677 21.3238 45.2832 21.2112 45.3136 20.5586C45.3326 20.1485 45.3771 19.6098 45.4124 19.3616C45.4811 18.8779 45.7112 18.1471 45.8612 17.9364L45.9503 17.8114L46.4848 17.8138C46.9814 17.816 47.0419 17.8247 47.3371 17.9363C48.1582 18.2469 48.9682 18.9603 49.4454 19.7933C50.0133 20.7847 50.2711 21.7819 50.328 23.2077C50.3431 23.5854 50.3675 23.9386 50.3823 23.9926C50.3988 24.053 50.4717 24.1218 50.5718 24.1717L50.7343 24.2526L50.7624 24.6034C50.7951 25.0122 50.7282 32.6269 50.6903 32.8068C50.6726 32.8907 50.6309 32.9397 50.555 32.9658L50.4454 33.0035L50.5417 33.0537C50.7 33.1362 51.1341 33.2054 51.2874 33.1725C51.5738 33.1112 51.6596 32.9237 51.6631 32.3519C51.6641 32.1685 51.6819 31.9477 51.7024 31.8614C51.7629 31.6069 51.825 30.8777 51.8897 29.6636C51.923 29.0376 51.9778 28.2164 52.0114 27.8387C52.045 27.4609 52.0923 26.8428 52.1165 26.4651C52.22 24.8507 52.2445 24.5165 52.2664 24.4128C52.2816 24.341 52.3457 24.2694 52.4525 24.2053C52.5422 24.1515 52.6332 24.0684 52.6547 24.0206C52.6762 23.9728 52.7857 23.4968 52.898 22.9628C53.0104 22.4288 53.1147 21.9728 53.1299 21.9495C53.145 21.9262 53.1817 21.7968 53.2114 21.662C53.241 21.5273 53.296 21.3475 53.3335 21.2625C53.4586 20.9792 53.4464 20.8959 53.6847 23.659C53.7294 24.1771 53.7853 24.9011 53.809 25.2681C53.8328 25.635 53.8821 26.1913 53.9187 26.5043C53.9553 26.8173 53.9875 27.1082 53.9902 27.1507C53.9936 27.2026 53.9477 27.2499 53.8507 27.2945C53.7216 27.354 53.715 27.3641 53.7888 27.3898C53.8342 27.4056 53.9493 27.4513 54.0445 27.4912C54.1397 27.5312 54.3104 27.564 54.4236 27.564C54.9198 27.564 54.9525 27.4841 54.8878 26.429C54.8619 26.0064 54.8217 25.2632 54.7985 24.7775C54.7753 24.2919 54.7198 23.2764 54.6751 22.5209C54.6305 21.7654 54.5939 20.9932 54.5939 20.8049C54.5937 20.4648 54.5945 20.4621 54.7163 20.4022C54.9157 20.3042 54.9341 20.2319 54.9015 19.6727L54.8721 19.167L55.0017 19.0519C55.1613 18.9102 55.6672 18.6256 56.08 18.4453C56.6045 18.2163 57.387 18.1026 57.8869 18.1828C58.425 18.2691 58.7206 18.5346 58.9116 19.1034C59.0116 19.401 59.0206 19.4947 59.0581 20.6312C59.0801 21.2971 59.1148 21.8837 59.1351 21.9346C59.1584 21.9929 59.2226 22.0397 59.3079 22.0607C59.466 22.0996 59.4427 22.0189 59.712 23.4628C59.8763 24.3437 60.2453 25.8599 60.4924 26.6697C60.5602 26.8917 60.6828 27.3206 60.7649 27.6228C60.847 27.925 60.9963 28.4019 61.0967 28.6825C61.3315 29.3387 61.4105 29.6617 61.3503 29.719C61.3256 29.7425 61.2069 29.7617 61.0866 29.7617C60.9662 29.7617 60.8678 29.7775 60.8678 29.7968C60.8678 29.9226 62.0064 30.0773 62.2703 29.9873C62.4852 29.914 62.5154 29.7876 62.4016 29.4375C62.0544 28.3696 61.6548 26.9147 61.3857 25.739C61.04 24.2284 60.9783 23.9075 60.7852 22.619C60.548 21.0358 60.5384 18.1432 60.7652 16.5359C61.0318 14.6457 61.3828 13.1046 61.8872 11.6106C62.0695 11.0705 62.6621 9.57239 62.9507 8.92224C63.5222 7.63424 63.9702 6.33732 64.0284 5.80221C64.0424 5.6727 64.082 5.46693 64.1162 5.34495C64.1664 5.16623 64.1749 4.93778 64.1601 4.16758C64.144 3.33444 64.1309 3.18432 64.0583 2.99598C63.8452 2.44336 63.4239 1.80829 63.079 1.51955C62.6732 1.17988 61.6876 0.783502 60.6409 0.539079C60.11 0.415063 58.8399 0.374953 58.3705 0.467376ZM3.28642 0.544809C2.85437 0.609839 2.1437 0.829538 1.67723 1.04229C0.885706 1.40327 0.428316 2.12869 0.273197 3.26905C0.204305 3.7756 0.293381 4.68724 0.48049 5.39075C0.655174 6.04738 1.16408 7.49134 1.44856 8.13733C2.05525 9.51505 2.25866 9.98557 2.40086 10.3398C2.56134 10.7397 3.04329 12.3005 3.12044 12.6702C3.14748 12.7997 3.21402 13.075 3.2683 13.282C3.39729 13.7736 3.55042 14.6083 3.68173 15.5351C3.7398 15.9453 3.8141 16.4663 3.84679 16.6929C3.98837 17.6745 3.99931 21.0817 3.86405 22.0892C3.84089 22.2619 3.77476 22.7917 3.7171 23.2666C3.54799 24.6599 3.31911 25.8716 2.85239 27.8443C2.72802 28.37 2.62619 28.8309 2.62611 28.8683C2.62603 28.9057 2.58074 29.0849 2.52539 29.2664C2.35574 29.823 2.3212 30.0665 2.3964 30.1756C2.52708 30.3653 2.98171 30.3831 3.32914 30.2124C3.46444 30.1458 3.46836 30.135 3.55459 29.5851C3.6227 29.1509 3.76184 28.5216 4.045 27.3677C4.29155 26.363 4.6831 24.454 4.89424 23.2273C4.98711 22.6877 5.08448 22.1954 5.11065 22.1333C5.13682 22.0712 5.24497 21.9611 5.35101 21.8887L5.54381 21.757L5.56742 20.4075L5.59107 19.0579L5.70343 18.8471C5.84707 18.5776 6.28036 18.1501 6.55852 18.0036L6.77432 17.8899H7.56746C8.25117 17.8899 8.37005 17.8989 8.42903 17.955C8.5018 18.0242 8.50407 17.9761 8.36225 19.3616C8.34342 19.5451 8.32675 19.8146 8.32514 19.9605C8.32246 20.2035 8.33257 20.236 8.44604 20.3489C8.55625 20.4586 8.56987 20.4988 8.56987 20.7144C8.56987 20.8476 8.49565 21.4923 8.40493 22.1469C8.3142 22.8016 8.2025 23.6746 8.15677 24.0868C8.11099 24.4991 8.00726 25.2779 7.9262 25.8175C7.76261 26.9066 7.73356 27.3586 7.82069 27.4587C7.90279 27.5529 8.13642 27.5808 8.39007 27.5269C8.66501 27.4684 8.72718 27.3887 8.77997 27.0269C8.80139 26.8798 8.88271 26.3091 8.96056 25.7587C9.17912 24.214 9.4179 22.7038 9.57571 21.8679C9.65463 21.45 9.74193 20.9226 9.76971 20.696C9.79753 20.4693 9.84074 20.178 9.8658 20.0486L9.91137 19.8133L10.1618 19.7708C10.2995 19.7475 10.4335 19.7158 10.4595 19.7005C10.5284 19.66 10.5919 19.4114 10.5922 19.181C10.5924 18.9925 10.6574 18.7337 10.7045 18.7337C10.7162 18.7337 10.8153 18.7961 10.9246 18.8724C11.3589 19.1755 11.8291 19.7578 12.1911 20.4409C12.6107 21.2327 12.6749 21.4738 12.7978 22.721C12.8711 23.4651 12.8986 23.554 13.0655 23.5857C13.3084 23.6319 13.3471 23.7086 13.374 24.1964C13.4545 25.6561 13.5612 28.6695 13.6011 30.6055C13.6375 32.3694 13.653 32.4793 13.8728 32.5318C14.0557 32.5755 14.4683 32.5297 14.5444 32.4574C14.6484 32.3585 14.673 31.5897 14.7111 27.2468L14.7444 23.4563L14.8674 23.2798C14.9851 23.1109 14.9953 23.0606 15.105 22.1057C15.2469 20.8724 15.3027 20.5724 15.4898 20.0385C15.7886 19.1861 16.1691 18.5389 16.6556 18.0557C17.0695 17.6447 17.7654 17.2554 18.2109 17.1856C18.4304 17.1513 18.5084 17.2177 18.6736 17.5798C18.8804 18.0334 18.9279 18.3498 18.9568 19.4686C18.9722 20.0665 19.0004 20.5011 19.0256 20.5314C19.0491 20.5597 19.1301 20.6073 19.2057 20.6374C19.3431 20.6919 19.3432 20.692 19.3432 20.9699C19.3432 21.1315 19.3698 21.3085 19.4068 21.3926C19.4941 21.5914 19.5358 21.9297 19.6108 23.0507C19.7466 25.0775 19.8495 26.105 20.0667 27.6032C20.3267 29.3967 20.2951 29.3155 20.7187 29.2791C20.8631 29.2667 20.9907 29.2312 21.0383 29.1902C21.1463 29.0973 21.1979 28.898 21.1774 28.6522C21.1234 28.0006 21.0641 27.4651 21.0136 27.1715C20.8953 26.4842 20.8518 25.6306 20.7865 22.7171C20.7412 20.6964 20.6816 19.0438 20.6179 18.0469C20.5945 17.6799 20.5606 16.7527 20.5426 15.9865C20.5245 15.2202 20.4958 14.5616 20.4786 14.5229C20.3483 14.2289 19.1796 14.072 15.587 13.8661C14.8264 13.8226 13.9627 13.7697 13.6676 13.7487C13.3724 13.7276 12.585 13.7104 11.9177 13.7103L10.7045 13.7102L10.7324 13.3864C10.8579 11.9324 10.8805 9.14061 10.7769 7.89616C10.653 6.40785 10.4529 5.31042 10.1746 4.59155C10.0066 4.15769 9.65752 3.5309 9.36701 3.14127C9.04526 2.70972 8.145 1.86131 7.66145 1.5338C7.21693 1.23275 6.33674 0.804853 5.9099 0.682327C5.22808 0.48657 4.07501 0.42613 3.28642 0.544809ZM5.32963 1.4455C5.81451 1.57752 6.59675 1.94341 7.06326 2.25636C7.56296 2.59155 8.32881 3.32286 8.61891 3.74181C9.04043 4.35055 9.35004 5.03142 9.49336 5.66485C9.52997 5.82674 9.60022 6.25059 9.64947 6.60674C9.73033 7.19158 9.73904 7.43299 9.73945 9.09885C9.73982 10.7087 9.72855 11.0483 9.65091 11.7676C9.602 12.2208 9.54244 12.839 9.51858 13.1412C9.46744 13.789 9.4345 13.8897 9.25701 13.9396C9.03011 14.0034 8.282 14.1168 8.25534 14.0914C8.1857 14.0252 8.07549 13.1111 7.95154 11.5713C7.90461 10.9885 7.84765 10.3881 7.82498 10.237C7.80228 10.0859 7.75791 9.7415 7.72633 9.47168C7.6948 9.20187 7.65839 8.93696 7.64543 8.883C7.63247 8.82903 7.58372 8.36986 7.53712 7.86261C7.38266 6.18136 7.29796 5.56618 7.12707 4.88445C6.94706 4.16648 6.85469 3.92552 6.52096 3.30386C6.07889 2.48029 5.44958 1.82834 4.79303 1.51379C4.70222 1.47026 4.59531 1.40037 4.55544 1.35845C4.48423 1.28357 4.48712 1.28279 4.72054 1.31328C4.85123 1.33039 5.1253 1.38985 5.32963 1.4455ZM59.7306 1.30531C59.7434 1.32509 59.6563 1.37191 59.5369 1.40927C58.8092 1.63725 57.9562 2.33304 57.4954 3.07475C56.9346 3.97728 56.8263 4.35384 56.5359 6.41052C56.3163 7.96543 56.0885 10.0403 55.9346 11.8853C55.8986 12.317 55.8436 12.8292 55.8124 13.0234C55.7813 13.2177 55.7429 13.5837 55.7271 13.8368C55.7091 14.1253 55.6792 14.3121 55.647 14.3375C55.611 14.366 55.3636 14.3362 54.8168 14.2378C54.3884 14.1606 54.0358 14.0943 54.0332 14.0903C54.0003 14.0404 53.926 13.5145 53.8918 13.09C53.868 12.7944 53.8304 12.3405 53.8084 12.0815C53.7428 11.3108 53.7156 8.55424 53.7619 7.37204C53.809 6.17076 53.8777 5.68106 54.1007 4.95964C54.4773 3.74145 55.2713 2.75756 56.3841 2.1303C56.835 1.87614 57.6378 1.54 58.0171 1.44656C58.598 1.30343 59.6718 1.21493 59.7306 1.30531ZM2.13809 1.94447C1.74897 2.43999 1.63414 2.83283 1.60487 3.76873C1.58283 4.47452 1.61895 4.84928 1.75954 5.3718C1.82699 5.62254 2.3342 6.73147 2.99752 8.07846C3.53779 9.1755 4.19558 10.9075 4.421 11.8264C4.66432 12.8184 4.89741 13.9416 4.89746 14.1223C4.8975 14.2302 4.92441 14.4245 4.95731 14.554C5.02331 14.8139 5.04052 15.2182 4.98418 15.1851C4.96449 15.1735 4.93638 15.0886 4.92181 14.9964C4.87413 14.6954 4.64352 13.7023 4.49554 13.1608C4.1709 11.973 4.10192 11.7427 3.90157 11.1789C3.78657 10.8551 3.36063 9.83635 2.95509 8.91502C2.1861 7.16804 1.84791 6.34639 1.73688 5.95515C1.70076 5.82787 1.62361 5.55594 1.56545 5.35088C1.39085 4.73527 1.35226 4.52998 1.31445 4.01653C1.26644 3.36462 1.31073 2.789 1.42808 2.53998C1.47766 2.43473 1.52525 2.31326 1.5338 2.27009C1.56405 2.11719 2.24925 1.60185 2.28826 1.70268C2.29544 1.72132 2.22791 1.83015 2.13809 1.94447ZM62.1003 1.91409C62.5162 2.11448 62.9737 2.73296 63.1046 3.27196C63.1373 3.40673 63.1557 3.75711 63.1538 4.21275C63.1506 5.00191 63.072 5.48734 62.8072 6.35298C62.6722 6.79434 62.2827 7.80919 62.1676 8.01959C62.1263 8.09514 62.0415 8.28941 61.9791 8.45129C61.9168 8.61318 61.6121 9.32828 61.3022 10.0404C60.7791 11.2422 60.1248 13.0387 60.1248 13.2733C60.1248 13.3179 60.0991 13.4123 60.0676 13.4832C59.9893 13.6598 59.9426 13.8459 59.7576 14.717C59.6698 15.1304 59.5854 15.4881 59.57 15.5118C59.5233 15.5837 59.3903 15.56 59.3223 15.4675C59.2435 15.3606 59.2433 15.2339 59.3214 14.8287C59.3547 14.656 59.4474 14.1527 59.5273 13.7102C59.7709 12.3619 60.0832 11.291 60.6205 9.96226C60.8584 9.37384 60.9237 9.22667 61.4036 8.1962C62.7114 5.38769 62.8019 5.10191 62.756 3.92324C62.7383 3.47034 62.7147 3.31156 62.6269 3.05501C62.4961 2.67326 62.2564 2.25573 62.0242 2.00518C61.9292 1.90267 61.8629 1.81876 61.8769 1.81876C61.891 1.81876 61.9915 1.86166 62.1003 1.91409ZM4.07963 2.0144C5.12733 2.32209 6.11244 3.65692 6.42499 5.19237C6.52633 5.69004 6.69829 6.96812 6.75261 7.62713C6.81378 8.36915 6.8577 8.76134 7.04291 10.2174C7.17471 11.2536 7.30056 12.7129 7.38262 14.1559L7.39347 14.3466L6.77432 14.5537C6.43379 14.6676 6.07554 14.7888 5.97821 14.823L5.8013 14.8851L5.76072 14.7837C5.73843 14.7279 5.70975 14.521 5.69695 14.3238C5.67379 13.9662 5.43637 12.7251 5.24171 11.9442C5.14706 11.5643 5.01823 11.1611 4.69623 10.237C4.49216 9.65115 3.7592 7.93564 3.32967 7.03845C3.21084 6.79022 3.01531 6.36499 2.89515 6.09349C2.77503 5.82199 2.64724 5.54562 2.61121 5.47937C2.47545 5.22977 2.3406 4.35165 2.33833 3.70264C2.33725 3.39013 2.35727 3.27215 2.46236 2.97224C2.61562 2.53484 2.77549 2.28736 2.99331 2.15031C3.35262 1.92426 3.64713 1.88741 4.07963 2.0144ZM61.0015 2.14289C61.2966 2.27162 61.5841 2.56106 61.7678 2.91419L61.9204 3.20751L61.9344 4.01429C61.9436 4.54623 61.9315 4.89461 61.8987 5.03692C61.8336 5.31948 61.4968 6.13799 61.0832 7.01883C60.4985 8.26397 60.1343 9.05489 60.0621 9.23621C60.0235 9.33334 59.959 9.48346 59.919 9.5698C59.824 9.77439 59.3845 11.0482 59.2012 11.6498C59.0041 12.2971 58.882 12.8529 58.6796 14.0242C58.5844 14.5746 58.4904 15.0413 58.4705 15.0613C58.4486 15.0834 58.1943 15.0265 57.8246 14.9168C57.4892 14.8174 57.0662 14.6944 56.8846 14.6435L56.5544 14.551V13.9442C56.5544 13.3018 56.6354 12.2006 56.7044 11.9049C56.7271 11.8078 56.7617 11.5164 56.7813 11.2574C56.8009 10.9983 56.8457 10.5215 56.8807 10.1977C56.9157 9.87395 56.9921 9.14104 57.0505 8.56903C57.1777 7.32392 57.3699 5.8473 57.4821 5.25277C57.7575 3.79361 58.5094 2.6934 59.5873 2.17213C59.9615 1.99121 60.6226 1.97751 61.0015 2.14289ZM63.9642 4.67185C63.9907 4.91843 63.9407 5.76202 63.8956 5.83023C63.8404 5.91351 63.8087 5.68612 63.8033 5.16937C63.798 4.64862 63.8258 4.43736 63.8968 4.45961C63.9222 4.46758 63.9525 4.56306 63.9642 4.67185ZM30.3228 4.84218C28.6789 4.93225 26.8615 5.11898 25.7204 5.31505C24.4769 5.52874 23.458 5.73796 23.1406 5.84487C22.9704 5.9022 22.7289 5.9827 22.604 6.02379C22.4792 6.06488 22.1734 6.20844 21.9245 6.34282C21.2047 6.73143 20.8615 7.11639 20.7387 7.67325C20.6614 8.02352 20.7282 8.17202 21.1308 8.54556C21.6824 9.05729 22.3544 9.44107 23.3304 9.80182L23.8297 9.98635L23.8859 10.877C23.9238 11.4764 23.9418 12.6207 23.9408 14.3774L23.9395 16.9872L23.8029 17.5759C23.6826 18.0942 23.6677 18.2209 23.6785 18.6356C23.7072 19.7352 23.6843 20.4665 23.5972 21.2258C23.4877 22.1809 22.9023 26.3798 22.8722 26.4261C22.8603 26.4443 22.7959 26.8094 22.729 27.2373C22.6622 27.6652 22.5802 28.1036 22.5468 28.2115C22.5135 28.3194 22.4562 28.5667 22.4197 28.761C22.3474 29.1444 22.0711 30.3567 21.8313 31.342L21.6808 31.9607L21.7646 32.068C21.8819 32.2182 22.0127 32.2722 22.2612 32.2729C22.5708 32.2737 22.6716 32.1774 22.7287 31.8263C22.7528 31.6774 22.7904 31.5241 22.8122 31.4855C22.8526 31.4136 22.9915 30.9376 23.4354 29.3496C23.7859 28.0957 23.81 27.9951 24.0516 26.7791C24.3217 25.42 24.6229 23.5638 24.8073 22.1222C24.8804 21.5506 24.9343 21.433 25.1519 21.371C25.2394 21.3461 25.3631 21.2741 25.4267 21.2109L25.5422 21.0963L25.5175 20.6508C25.4468 19.3741 25.4445 18.6235 25.5104 18.3203C25.5801 17.9999 25.7125 17.674 25.773 17.674C25.8505 17.674 26.2262 17.9368 26.4447 18.1439C26.996 18.6663 27.7506 20.0453 28.0702 21.1144C28.2031 21.5589 28.4854 22.904 28.5631 23.4628C28.6323 23.9605 28.6663 24.0597 28.8373 24.262L28.962 24.4095L28.9192 25.2705C28.8956 25.744 28.849 26.6172 28.8157 27.2108C28.7823 27.8043 28.6988 29.4291 28.63 30.8214C28.5613 32.2136 28.4782 33.6971 28.4453 34.118C28.3104 35.8494 28.2932 36.1604 28.3067 36.6186C28.3182 37.0075 28.3343 37.1108 28.3919 37.1655C28.4842 37.2532 28.9001 37.281 29.0432 37.2091C29.2551 37.1026 29.2869 36.9425 29.434 35.2365C29.4917 34.5674 29.5663 33.8345 29.5999 33.6078C29.6334 33.3812 29.7074 32.7277 29.7644 32.1557C30.1143 28.6429 30.1377 28.3426 30.2419 26.0334C30.2877 25.0199 30.3031 24.8741 30.3733 24.7892C30.3947 24.7632 30.5091 24.7152 30.6275 24.6825C31.0238 24.5729 31.0682 24.4676 31.1492 23.4432C31.2331 22.3842 31.3115 22.0154 31.5827 21.4045C31.7963 20.9232 31.9565 20.68 32.3464 20.2446C32.8833 19.6451 33.0261 19.5627 33.0546 19.8362C33.0734 20.0161 33.2354 20.1178 33.5365 20.1385L33.7794 20.1552L33.8068 20.6513C33.8859 22.0855 33.9643 23.395 34.0373 24.5028C34.0821 25.1827 34.1476 26.3307 34.1828 27.0538C34.2542 28.518 34.3414 29.5234 34.4071 29.6401C34.431 29.6826 34.4505 29.7525 34.4505 29.7954C34.4505 29.891 34.642 30.1149 34.7238 30.1149C34.7566 30.1149 34.794 30.0884 34.8071 30.0561C34.8216 30.0201 34.8842 29.9972 34.968 29.9972C35.1381 29.9972 35.2231 29.9199 35.2604 29.731C35.3001 29.5303 35.2435 25.5456 35.1591 22.5994L35.0894 20.1661L35.2026 20.075C35.3468 19.9588 35.3831 19.8203 35.445 19.1507L35.4954 18.6061L35.685 18.5254C35.8094 18.4724 36.0165 18.4346 36.2874 18.4153C36.5144 18.3991 36.7956 18.37 36.9122 18.3505C37.0912 18.3206 37.1974 18.3329 37.5933 18.4294C37.8512 18.4923 38.1724 18.5995 38.307 18.6675C38.8054 18.9197 39.2498 19.4677 39.4269 20.0484C39.4917 20.2608 39.496 20.4207 39.471 21.6813L39.4433 23.0788L39.6755 23.1016C39.9203 23.1256 40.0421 23.1969 40.0793 23.3381C40.0917 23.3851 40.1686 23.8651 40.2503 24.4047C40.3319 24.9443 40.4421 25.5801 40.4951 25.8175C40.5482 26.055 40.6139 26.3994 40.6412 26.5828C40.6685 26.7663 40.717 26.9759 40.749 27.0487C40.781 27.1215 40.8072 27.2241 40.8072 27.2767C40.8072 27.3293 40.8616 27.5788 40.9282 27.8312C40.9947 28.0835 41.1161 28.6256 41.1979 29.0357C41.2797 29.4458 41.3914 29.905 41.4461 30.0561C41.5008 30.2072 41.6112 30.5604 41.6914 30.841C41.7716 31.1216 41.9705 31.8015 42.1334 32.3519C42.2963 32.9024 42.479 33.536 42.5394 33.76C42.6105 34.0237 42.6765 34.1862 42.7267 34.2211C42.8163 34.2833 43.3458 34.2954 43.5025 34.2388C43.5576 34.2188 43.6143 34.1739 43.6284 34.139C43.6543 34.0748 43.4517 33.1559 43.2604 32.4698C43.1316 32.0078 42.8025 30.5713 42.604 29.6047C42.522 29.2054 42.4287 28.7816 42.3968 28.6628C42.3649 28.5441 42.2452 27.9137 42.1309 27.2619C42.0166 26.6101 41.9053 26.0008 41.8836 25.9079C41.8036 25.5644 41.5105 23.8353 41.4292 23.2273C41.1451 21.1007 40.9188 19.0754 40.8701 18.2235C40.8559 17.9753 40.7996 17.1187 40.745 16.3201C40.6172 14.4523 40.5586 13.0419 40.5477 11.5713C40.5387 10.3635 40.5553 10.2174 40.702 10.2174C40.7333 10.2174 41.0677 10.1213 41.445 10.0039C42.5078 9.67309 43.2282 9.32137 43.6859 8.90984C44.0133 8.61546 44.1183 8.42429 44.1415 8.08046C44.1666 7.7083 44.1003 7.57525 43.6989 7.19186C42.4843 6.03187 39.1858 5.17612 34.7807 4.87824C33.9573 4.82255 31.1024 4.79944 30.3228 4.84218ZM25.7493 10.5475C26.5214 10.7189 27.3887 10.8612 28.2961 10.9654C28.6911 11.0108 29.0551 11.0627 29.105 11.0807C29.1821 11.1086 29.1998 11.1539 29.2224 11.3817C29.2553 11.7125 29.2494 13.1671 29.2138 13.5129L29.1877 13.7669L28.7337 13.8371C27.2645 14.0643 26.2341 14.3176 25.6263 14.601C25.4609 14.6781 25.3149 14.731 25.3018 14.7184C25.2722 14.6903 25.2209 14.0275 25.1645 12.9449C25.124 12.1664 25.0291 11.0111 24.9721 10.6C24.9474 10.4223 24.9508 10.4136 25.0459 10.4136C25.1008 10.4136 25.4174 10.4739 25.7493 10.5475ZM39.4567 11.6793C39.4291 13.497 39.3807 14.7682 39.3375 14.8093C39.3119 14.8337 39.2184 14.7964 39.0756 14.705C38.3709 14.2538 37.0909 13.9217 35.1626 13.6897L34.9459 13.6636V12.3811V11.0986L36.5453 10.9103C37.4251 10.8067 38.3863 10.6812 38.6814 10.6314C38.9765 10.5815 39.2756 10.5386 39.3461 10.536L39.4741 10.5313L39.4567 11.6793ZM33.2322 11.1852L33.8018 11.2112L33.7723 12.3528C33.7561 12.9806 33.727 13.5098 33.7077 13.5286C33.6885 13.5474 33.1094 13.5774 32.4209 13.5953C31.7323 13.6131 30.9879 13.6375 30.7666 13.6495L30.3641 13.6714L30.3627 13.2689C30.3616 12.9355 30.3017 11.6788 30.2696 11.3163C30.2622 11.2328 30.2823 11.2147 30.4054 11.1939C30.6075 11.1599 32.5455 11.1539 33.2322 11.1852ZM33.6997 15.3389C33.7125 16.2464 33.6822 16.9676 33.6311 16.9676C33.616 16.9676 33.562 16.8573 33.5111 16.7223C33.3855 16.3894 33.0441 15.8393 32.8079 15.589C32.7011 15.4759 32.4651 15.2782 32.2835 15.1497C31.9273 14.8975 31.1939 14.5344 31.041 14.5344C30.891 14.5344 30.8855 14.4626 31.0341 14.4448C31.1083 14.4359 31.7355 14.4304 32.428 14.4325L33.6869 14.4363L33.6997 15.3389ZM35.7725 14.5741C36.1939 14.6221 36.9271 14.7739 36.9271 14.8133C36.9271 14.8289 36.7739 14.9123 36.5866 14.9987C36.2034 15.1754 35.8743 15.4543 35.6064 15.8294C35.4059 16.1101 35.0711 16.7529 35.0661 16.8666C35.0635 16.9267 35.0526 16.9171 35.0246 16.8303C34.9778 16.685 34.9224 14.7853 34.9609 14.6398C34.9867 14.5421 35.0046 14.5344 35.2057 14.5344C35.3251 14.5344 35.5801 14.5523 35.7725 14.5741ZM26.9794 15.0456C26.9794 15.0677 26.9376 15.101 26.8865 15.1196C26.7669 15.1632 26.3657 15.4454 26.0545 15.7048C25.9205 15.8165 25.7827 15.908 25.7482 15.908C25.6594 15.908 25.5347 15.791 25.5347 15.7077C25.5347 15.5723 26.001 15.311 26.5873 15.1179C26.9646 14.9936 26.9794 14.9909 26.9794 15.0456ZM30.8251 15.2642C31.3619 15.3927 31.8703 15.7059 32.2528 16.1435C32.5304 16.4611 32.7982 16.9113 32.7989 17.0616L32.7994 17.1752L31.9017 17.1465C31.4079 17.1307 30.8925 17.1061 30.7562 17.0918L30.5086 17.0657L30.4827 16.791C30.4474 16.4155 30.4408 15.4745 30.4725 15.3242C30.5026 15.1812 30.4887 15.1835 30.8251 15.2642ZM29.1842 15.5548C29.1823 15.6951 29.1656 16.0669 29.1472 16.3811L29.1137 16.9522L28.5728 16.8602C27.5212 16.6812 26.6079 16.4302 26.6079 16.3202C26.6079 16.2407 27.2479 15.7966 27.5779 15.6471C27.8971 15.5025 28.8168 15.2795 29.0432 15.2918L29.1877 15.2997L29.1842 15.5548ZM37.9169 15.7141C38.2854 15.8297 38.5782 15.9765 38.5782 16.0455C38.5782 16.2004 37.7678 16.5031 36.6851 16.7525C36.0038 16.9095 35.9363 16.9156 35.9369 16.8204C35.938 16.6263 36.4841 15.968 36.8652 15.7012C37.0226 15.591 37.0448 15.5867 37.3399 15.6079C37.5102 15.6201 37.7698 15.6679 37.9169 15.7141ZM19.3844 16.477C19.3844 16.6775 19.3533 16.6902 19.152 16.5719C18.9833 16.4729 18.9791 16.4381 19.1265 16.3621C19.3323 16.256 19.3844 16.2792 19.3844 16.477ZM39.3796 16.7616C39.4027 16.8316 39.5268 18.3049 39.5273 18.516L39.5276 18.6319L39.3728 18.4913C39.1031 18.2463 38.8264 18.0684 38.4387 17.8909C38.0525 17.7141 37.8781 17.6611 37.536 17.6164C37.3242 17.5887 37.285 17.5367 37.4328 17.4794C37.4838 17.4596 37.7671 17.3528 38.0623 17.2421C38.3574 17.1314 38.7382 16.9628 38.9084 16.8675C39.2456 16.6787 39.3449 16.6563 39.3796 16.7616ZM5.48441 16.8362C5.54683 16.8664 5.59793 16.9042 5.59793 16.9201C5.59793 16.936 5.53292 17.0408 5.45346 17.153C5.374 17.2652 5.30899 17.3753 5.30899 17.3978C5.30899 17.4611 5.2382 17.4458 5.21021 17.3765C5.19642 17.3423 5.18516 17.1822 5.18516 17.0206C5.18516 16.6955 5.18879 16.6933 5.48441 16.8362ZM45.421 16.8717C45.5515 16.9586 45.5349 17.0587 45.3668 17.199C45.2016 17.337 45.1607 17.3471 45.125 17.2587C45.0913 17.1752 45.0931 16.8695 45.1275 16.8368C45.1759 16.7908 45.3264 16.8087 45.421 16.8717ZM59.3641 17.3834C59.3203 17.95 59.303 17.9683 59.1217 17.6392C59.0377 17.4868 58.9691 17.3274 58.9691 17.2849C58.9691 17.2142 59.2565 17.0082 59.3565 17.0072C59.3773 17.007 59.3805 17.1697 59.3641 17.3834ZM6.61994 17.1737C6.60038 17.231 6.27388 17.3487 6.23557 17.3122C6.22125 17.2986 6.22179 17.2509 6.23673 17.206C6.25898 17.1394 6.2979 17.1246 6.45034 17.1246C6.5809 17.1246 6.63171 17.1393 6.61994 17.1737ZM27.7283 17.5968C28.0315 17.6623 28.4637 17.7357 28.6886 17.7601L29.0976 17.8043L29.066 19.1618C29.0487 19.9085 29.0225 20.6165 29.0079 20.7352L28.9813 20.9511L28.7205 20.2643C28.361 19.3175 27.8391 18.391 27.3226 17.7828C27.1802 17.6151 27.0892 17.4778 27.1203 17.4778C27.1514 17.4778 27.425 17.5314 27.7283 17.5968ZM15.9172 17.6572C15.9172 17.6695 15.8456 17.7622 15.7582 17.8632C15.4774 18.1876 15.0787 18.8931 14.8016 19.5558C14.6735 19.8624 14.6607 19.879 14.6318 19.7764C14.5992 19.6603 14.5138 18.4848 14.5138 18.1514C14.5138 17.973 14.5223 17.9568 14.6273 17.9346C14.6897 17.9213 14.973 17.8499 15.2567 17.7759C15.7731 17.6411 15.9172 17.6152 15.9172 17.6572ZM12.3983 18.052L13.2754 18.1205V19.4553C13.2754 20.2453 13.2603 20.7749 13.2384 20.7529C13.218 20.7324 13.1438 20.5828 13.0734 20.4205C12.7111 19.5848 12.0308 18.7268 11.3262 18.2168C11.1496 18.089 11.0052 17.974 11.0052 17.9612C11.0052 17.9483 11.1213 17.9481 11.2632 17.9607C11.4051 17.9733 11.9159 18.0144 12.3983 18.052ZM32.4965 18.0273H32.9646V18.2783C32.9646 18.5584 33.0037 18.5093 32.4292 18.9495C31.9515 19.3155 31.2123 20.2093 30.9038 20.7941C30.8126 20.9668 30.6726 21.2935 30.5926 21.5201L30.4471 21.9322L30.4572 20.0092C30.4628 18.9502 30.4841 18.0614 30.5046 18.0311C30.5354 17.9856 30.6711 17.9805 31.2851 18.0017C31.6939 18.0157 32.239 18.0273 32.4965 18.0273ZM50.1115 18.2247C50.5862 18.3318 50.9822 18.4264 50.9913 18.4351C51.0701 18.51 51.0205 20.454 50.9271 20.9511C50.898 21.1066 50.8959 21.1033 50.7173 20.6175C50.6181 20.3477 50.5129 20.0827 50.4836 20.0288C50.4543 19.9748 50.3713 19.8073 50.2992 19.6565C50.1269 19.2966 49.662 18.6508 49.3287 18.3084C49.1823 18.1582 49.0626 18.0225 49.0626 18.007C49.0626 17.9915 49.1044 17.9904 49.1555 18.0045C49.2065 18.0186 49.6367 18.1177 50.1115 18.2247ZM52.5047 18.6258C52.5121 18.6528 52.539 18.7367 52.5644 18.8124C52.5897 18.8881 52.6467 19.1442 52.6909 19.3815C52.7352 19.6188 52.7951 19.9143 52.8242 20.0381C52.8733 20.2478 52.8704 20.2774 52.7818 20.4698C52.7294 20.5834 52.6222 20.8441 52.5436 21.0492C52.4649 21.2542 52.3832 21.4388 52.362 21.4593C52.3194 21.5005 52.3062 18.7437 52.3485 18.6388C52.3783 18.5649 52.4855 18.556 52.5047 18.6258Z" fill="#EEEEEE"/>
</svg>
