<svg width="94" height="121" viewBox="0 0 94 121" fill="none" xmlns="http://www.w3.org/2000/svg">
<path d="M49.3452 24.8422C40.3269 24.8422 29.7577 24.824 22.9822 28.0823M49.3452 61.0493H2.88466C-0.111509 59.4231 4.0019 37.2096 22.9822 28.0823M2.88466 105.678C2.88466 105.678 2.1352 115.782 7.38056 118.308H49.3452M3.49873 98.9417C4.99745 98.9417 11.7417 104.201 18.486 105.678C29.7264 103.359 35.8565 98.9417 38.854 98.9417C41.8514 98.9417 49.3452 98.9417 49.3452 98.9417M2.88466 72.8389C4.38329 72.8389 7.24554 66.9447 10.9924 66.9447C14.7392 66.9447 15.4885 72.8389 20.7341 72.8389C25.9796 72.8389 26.1148 66.9447 29.8616 66.9447C33.6085 66.9447 34.972 72.8389 37.9694 72.8389C40.9669 72.8389 42.6008 66.9447 45.5983 66.9447C48.5957 66.9447 46.2356 66.9447 46.2356 66.9447M49.3452 78.7331C49.3452 78.7331 8.13011 78.7331 5.88202 78.7331C3.63393 78.7331 2.88466 93.0475 5.88202 93.0475C8.87937 93.0475 49.3452 93.0475 49.3452 93.0475M22.9822 28.0823L13.2404 9.89418L22.9822 4V9.89418L27.4783 12.4203C27.4783 12.4203 23.7315 15.7884 22.9822 15.7884" stroke="#FF0047" stroke-width="4"/>
<path d="M38.9035 35.155C38.9035 36.5501 37.1476 37.6811 35.906 37.6811C34.6645 37.6811 32.8959 37.0446 33.658 35.155C34.2542 33.6765 35.4138 32.6289 36.6554 32.6289C37.897 32.6289 38.9035 33.7599 38.9035 35.155Z" fill="#FF0047"/>
<path d="M23.9162 41.8911C23.9162 43.2862 22.1603 44.4171 20.9187 44.4171C19.6772 44.4171 17.9086 43.7807 18.6706 41.8911C19.2669 40.4126 20.4265 39.365 21.6681 39.365C22.9097 39.365 23.9162 40.496 23.9162 41.8911Z" fill="#FF0047"/>
<path d="M28.4123 51.9956C28.4123 53.3907 26.6564 54.5216 25.4148 54.5216C24.1732 54.5216 22.4047 53.8852 23.1667 51.9956C23.763 50.5171 24.9226 49.4695 26.1642 49.4695C27.4058 49.4695 28.4123 50.6004 28.4123 51.9956Z" fill="#FF0047"/>
<path d="M41.9006 46.9433C41.9006 48.3384 40.1447 49.4694 38.9031 49.4694C37.6615 49.4694 35.8929 48.8329 36.655 46.9433C37.2513 45.4648 38.4109 44.4172 39.6525 44.4172C40.8941 44.4172 41.9006 45.5482 41.9006 46.9433Z" fill="#FF0047"/>
<path d="M43.689 24.8057C57.8094 24.8056 63.2765 24.7875 70.052 28.0458C89.0323 37.1731 93.1457 59.3866 90.1495 61.0128H43.689M90.1495 105.641C90.1495 105.641 90.899 115.746 85.6536 118.272H43.689M89.5355 98.9052C88.0367 98.9052 81.2925 104.165 74.5482 105.641C63.3077 103.323 57.1776 98.9052 54.1802 98.9052C51.1827 98.9052 43.689 98.9052 43.689 98.9052M90.1495 72.8024C88.6509 72.8024 85.7886 66.9082 82.0418 66.9082C78.295 66.9082 77.5456 72.8024 72.3001 72.8024C67.0546 72.8024 66.9194 66.9082 63.1725 66.9082C59.4257 66.9082 58.0622 72.8024 55.0647 72.8024C52.0673 72.8024 51.7578 67.2057 47.051 66.9502M43.689 78.6966C43.689 78.6966 84.9041 78.6966 87.1522 78.6966C89.4003 78.6966 90.1495 93.011 87.1522 93.011C84.1548 93.011 43.689 93.011 43.689 93.011" stroke="#FF0047" stroke-width="4"/>
<path d="M54.1312 35.1186C54.1312 36.5137 55.887 37.6447 57.1286 37.6447C58.3702 37.6447 60.1388 37.0082 59.3767 35.1186C58.7805 33.6401 57.6208 32.5925 56.3793 32.5925C55.1377 32.5925 54.1312 33.7235 54.1312 35.1186Z" fill="#FF0047"/>
<path d="M69.1185 41.8547C69.1185 43.2498 70.8743 44.3808 72.1159 44.3808C73.3575 44.3808 75.1261 43.7443 74.364 41.8547C73.7678 40.3762 72.6082 39.3286 71.3666 39.3286C70.125 39.3286 69.1185 40.4596 69.1185 41.8547Z" fill="#FF0047"/>
<path d="M64.6224 51.9592C64.6224 53.3543 66.3783 54.4853 67.6198 54.4853C68.8614 54.4853 70.63 53.8488 69.8679 51.9592C69.2717 50.4807 68.1121 49.4331 66.8705 49.4331C65.6289 49.4331 64.6224 50.5641 64.6224 51.9592Z" fill="#FF0047"/>
<path d="M51.1341 46.9069C51.1341 48.302 52.89 49.433 54.1316 49.433C55.3731 49.433 57.1417 48.7966 56.3796 46.9069C55.7834 45.4285 54.6238 44.3809 53.3822 44.3809C52.1406 44.3809 51.1341 45.5118 51.1341 46.9069Z" fill="#FF0047"/>
</svg>
