<svg width="183" height="75" viewBox="0 0 183 75" fill="none" xmlns="http://www.w3.org/2000/svg">
<path d="M35.0642 15.128C27.2093 14.1146 20.9713 15.1166 16.0964 17.1689M35.0642 37.934H1.6365C-0.519202 36.9097 2.44034 22.9179 16.0964 17.1689M1.6365 66.0444C1.6365 66.0444 1.09727 72.4089 4.87124 74H35.0642M2.07831 61.8015C3.15663 61.8015 8.00904 65.1142 12.8614 66.0444C20.9488 64.5838 25.3593 61.8015 27.5159 61.8015C29.6726 61.8015 35.0642 61.8015 35.0642 61.8015M1.6365 45.3599C2.71474 45.3599 4.7741 41.6473 7.46988 41.6473C10.1657 41.6473 10.7048 45.3599 14.4789 45.3599C18.253 45.3599 18.3503 41.6473 21.0461 41.6473C23.7419 41.6473 24.7229 45.3599 26.8795 45.3599C29.0361 45.3599 30.2117 41.6473 32.3684 41.6473C34.525 41.6473 35.0642 41.6473 35.0642 41.6473M35.0642 49.0725C35.0642 49.0725 5.41053 49.0725 3.79306 49.0725C2.17559 49.0725 1.6365 58.0889 3.79306 58.0889C5.94961 58.0889 35.0642 58.0889 35.0642 58.0889M133.633 15.128H180L156.277 45.3599L180 74H115.301M16.0964 17.1689L9.08735 5.7126L16.0964 2V5.7126L19.3313 7.30371C19.3313 7.30371 16.6355 9.4252 16.0964 9.4252" stroke="#891E3C" stroke-width="2"/>
<path d="M43.7397 39.9111H48.5181C49.1538 39.9043 49.769 39.8052 50.3638 39.6138C50.9653 39.4224 51.4951 39.1455 51.9531 38.7832C52.4111 38.4277 52.7769 37.9834 53.0503 37.4502C53.3237 36.917 53.457 36.3018 53.4502 35.6045C53.4502 35.1602 53.3818 34.7466 53.2451 34.3638C53.1152 33.981 52.9307 33.6357 52.6914 33.3281C52.4658 33.0479 52.1787 32.7915 51.8301 32.5591C51.4814 32.3267 51.1191 32.166 50.7432 32.0771V32.0464C51.1055 31.8892 51.4131 31.7217 51.666 31.5439C51.9258 31.3662 52.1616 31.1475 52.3735 30.8877C52.5786 30.6348 52.7393 30.3477 52.8555 30.0264C52.9785 29.7051 53.0435 29.3496 53.0503 28.96C53.0571 28.2627 52.9238 27.6646 52.6504 27.1655C52.377 26.6665 52.0112 26.2563 51.5532 25.9351C51.0952 25.6138 50.5723 25.3779 49.9844 25.2275C49.3965 25.0703 48.7949 24.9883 48.1797 24.9814H43.7397V39.9111ZM45.647 32.9282H48.6719C49.0752 32.9419 49.4512 33.0103 49.7998 33.1333C50.1484 33.2563 50.4526 33.4307 50.7124 33.6562C50.9722 33.8887 51.1738 34.1689 51.3174 34.4971C51.4678 34.8252 51.5396 35.2012 51.5327 35.625C51.5327 36.042 51.4507 36.4146 51.2866 36.7427C51.1294 37.0708 50.9141 37.3477 50.6406 37.5732C50.3672 37.7988 50.0527 37.9766 49.6973 38.1064C49.3418 38.2295 48.9658 38.2944 48.5693 38.3013H45.647V32.9282ZM45.647 31.3491V26.6016H48.2412C48.6104 26.6084 48.9692 26.6562 49.3179 26.7451C49.6733 26.834 49.9878 26.9707 50.2612 27.1553C50.5278 27.3467 50.7397 27.5894 50.897 27.8833C51.061 28.1772 51.1431 28.5327 51.1431 28.9497C51.1431 29.3394 51.061 29.6812 50.897 29.9751C50.7329 30.269 50.5176 30.5151 50.251 30.7134C49.9844 30.9185 49.6802 31.0757 49.3384 31.1851C48.9966 31.2876 48.6479 31.3423 48.2925 31.3491H45.647ZM66.5846 24.9814H64.7492L64.7184 35.0918C64.7047 35.5361 64.633 35.9634 64.5031 36.3735C64.3732 36.7837 64.1852 37.146 63.9391 37.4604C63.6862 37.7817 63.3752 38.0381 63.006 38.2295C62.6369 38.4141 62.2096 38.5063 61.7243 38.5063C61.2389 38.5063 60.8083 38.4106 60.4323 38.2192C60.0631 38.0278 59.7555 37.7749 59.5094 37.4604C59.2565 37.146 59.0617 36.7837 58.925 36.3735C58.7951 35.9634 58.7267 35.5361 58.7199 35.0918L58.6789 24.9814H56.8742L56.8537 35.0918C56.8605 35.7891 56.9836 36.4453 57.2228 37.0605C57.4621 37.6689 57.7936 38.1987 58.2174 38.6499C58.6413 39.1079 59.1505 39.4668 59.7453 39.7266C60.34 39.9863 60.9997 40.1162 61.7243 40.1162C62.4352 40.1162 63.088 39.9863 63.6828 39.7266C64.2775 39.46 64.7902 39.0977 65.2209 38.6396C65.6515 38.1885 65.9899 37.6587 66.236 37.0503C66.4821 36.4419 66.6051 35.7891 66.6051 35.0918L66.5846 24.9814ZM75.6072 33.8203L78.5399 39.9111H80.5394L80.5496 39.7881L77.3812 33.4102C77.7913 33.2324 78.1673 33.0171 78.5091 32.7642C78.8509 32.5112 79.1448 32.2207 79.3909 31.8926C79.637 31.5645 79.8284 31.1987 79.9652 30.7954C80.1087 30.3921 80.1805 29.9478 80.1805 29.4624C80.1805 28.7104 80.0472 28.0576 79.7806 27.5039C79.5208 26.9434 79.1619 26.4785 78.7039 26.1094C78.2391 25.7402 77.699 25.4634 77.0838 25.2788C76.4686 25.0942 75.8123 24.9951 75.1151 24.9814H70.7366V39.9111H72.6234V33.8203H75.6072ZM72.6234 32.2617V26.54H75.1151C75.5731 26.5469 75.9935 26.6118 76.3763 26.7349C76.7659 26.8579 77.1009 27.0391 77.3812 27.2783C77.6614 27.5244 77.8802 27.8286 78.0374 28.1909C78.1946 28.5464 78.2733 28.9634 78.2733 29.4419C78.2733 29.8931 78.1912 30.293 78.0272 30.6416C77.8631 30.9834 77.6409 31.2739 77.3607 31.5132C77.0736 31.7524 76.742 31.937 76.366 32.0669C75.9901 32.1899 75.5902 32.2549 75.1663 32.2617H72.6234ZM93.7763 37.9526L93.7456 32.4771H88.9057V34.0767H91.9409L91.9204 37.4297C91.7632 37.6553 91.5683 37.8398 91.3359 37.9834C91.1035 38.1201 90.854 38.2295 90.5874 38.3115C90.3208 38.3936 90.0439 38.4482 89.7568 38.4756C89.4765 38.5029 89.2065 38.5132 88.9468 38.5063C88.4956 38.4995 88.0923 38.4209 87.7368 38.2705C87.3813 38.1133 87.0703 37.9048 86.8037 37.645C86.5303 37.3853 86.2978 37.0845 86.1064 36.7427C85.915 36.4009 85.7578 36.0386 85.6347 35.6558C85.5117 35.2729 85.4194 34.8833 85.3579 34.4868C85.3032 34.0835 85.2724 33.6938 85.2656 33.3179V31.5645C85.2656 31.1953 85.2895 30.8125 85.3374 30.416C85.3852 30.0195 85.4638 29.6299 85.5732 29.2471C85.6826 28.8643 85.8227 28.502 85.9936 28.1602C86.1645 27.8115 86.3799 27.5073 86.6396 27.2476C86.8994 26.9878 87.2036 26.7827 87.5522 26.6323C87.9009 26.4751 88.3008 26.3965 88.7519 26.3965C89.2236 26.3965 89.6372 26.4717 89.9927 26.6221C90.3481 26.7656 90.6557 26.9673 90.9155 27.2271C91.1684 27.4868 91.3735 27.8013 91.5307 28.1704C91.688 28.5327 91.8042 28.9292 91.8794 29.3599H93.7558C93.6943 28.6626 93.5303 28.0337 93.2637 27.4731C92.9971 26.9058 92.645 26.4204 92.2075 26.0171C91.77 25.6206 91.2573 25.3164 90.6694 25.1045C90.0815 24.8857 89.4389 24.7764 88.7417 24.7764C88.1128 24.7764 87.5454 24.8687 87.0395 25.0532C86.5337 25.2378 86.0825 25.4873 85.686 25.8018C85.2827 26.123 84.9375 26.5024 84.6504 26.9399C84.3633 27.3706 84.124 27.8389 83.9326 28.3447C83.7412 28.8506 83.5976 29.3804 83.5019 29.9341C83.4131 30.481 83.3652 31.0312 83.3584 31.585V33.3179C83.3652 33.8784 83.4199 34.4355 83.5224 34.9893C83.6318 35.5361 83.7925 36.0591 84.0044 36.5581C84.2095 37.064 84.4658 37.5322 84.7734 37.9629C85.081 38.3936 85.4399 38.7661 85.8501 39.0806C86.2602 39.4019 86.7217 39.6548 87.2344 39.8394C87.7539 40.0171 88.3213 40.1094 88.9365 40.1162C89.5449 40.123 90.126 40.0547 90.6797 39.9111C91.2334 39.7744 91.7495 39.5625 92.228 39.2754C92.5083 39.1113 92.7783 38.9199 93.0381 38.7012C93.2978 38.4756 93.5439 38.2261 93.7763 37.9526ZM106.942 24.9814H105.106L105.075 35.0918C105.062 35.5361 104.99 35.9634 104.86 36.3735C104.73 36.7837 104.542 37.146 104.296 37.4604C104.043 37.7817 103.732 38.0381 103.363 38.2295C102.994 38.4141 102.567 38.5063 102.081 38.5063C101.596 38.5063 101.165 38.4106 100.789 38.2192C100.42 38.0278 100.112 37.7749 99.8663 37.4604C99.6134 37.146 99.4186 36.7837 99.2819 36.3735C99.152 35.9634 99.0836 35.5361 99.0768 35.0918L99.0358 24.9814H97.2311L97.2106 35.0918C97.2174 35.7891 97.3405 36.4453 97.5797 37.0605C97.819 37.6689 98.1505 38.1987 98.5744 38.6499C98.9982 39.1079 99.5075 39.4668 100.102 39.7266C100.697 39.9863 101.357 40.1162 102.081 40.1162C102.792 40.1162 103.445 39.9863 104.04 39.7266C104.634 39.46 105.147 39.0977 105.578 38.6396C106.008 38.1885 106.347 37.6587 106.593 37.0503C106.839 36.4419 106.962 35.7891 106.962 35.0918L106.942 24.9814ZM119.235 33.0103V31.4004H113.001V26.6016H120.179V24.9814H111.104V39.9111H120.271V38.3013H113.001V33.0103H119.235ZM129.416 33.8203L132.349 39.9111H134.349L134.359 39.7881L131.19 33.4102C131.601 33.2324 131.977 33.0171 132.318 32.7642C132.66 32.5112 132.954 32.2207 133.2 31.8926C133.446 31.5645 133.638 31.1987 133.774 30.7954C133.918 30.3921 133.99 29.9478 133.99 29.4624C133.99 28.7104 133.856 28.0576 133.59 27.5039C133.33 26.9434 132.971 26.4785 132.513 26.1094C132.048 25.7402 131.508 25.4634 130.893 25.2788C130.278 25.0942 129.622 24.9951 128.924 24.9814H124.546V39.9111H126.433V33.8203H129.416ZM126.433 32.2617V26.54H128.924C129.382 26.5469 129.803 26.6118 130.186 26.7349C130.575 26.8579 130.91 27.0391 131.19 27.2783C131.471 27.5244 131.689 27.8286 131.847 28.1909C132.004 28.5464 132.082 28.9634 132.082 29.4419C132.082 29.8931 132 30.293 131.836 30.6416C131.672 30.9834 131.45 31.2739 131.17 31.5132C130.883 31.7524 130.551 31.937 130.175 32.0669C129.799 32.1899 129.399 32.2549 128.976 32.2617H126.433Z" fill="#891E3C"/>
<path d="M53.604 54.3276V53.0151C53.5972 52.4683 53.5493 51.9146 53.4604 51.354C53.3716 50.7866 53.2383 50.2432 53.0605 49.7236C52.876 49.2041 52.6401 48.7188 52.353 48.2676C52.0728 47.8096 51.7378 47.4131 51.3481 47.0781C50.9517 46.7432 50.4971 46.48 49.9844 46.2886C49.4785 46.0903 48.9077 45.9912 48.272 45.9912C47.6362 45.9912 47.062 46.0903 46.5493 46.2886C46.0435 46.48 45.5957 46.7432 45.2061 47.0781C44.8096 47.4199 44.4712 47.8198 44.1909 48.2778C43.9106 48.729 43.6782 49.2144 43.4937 49.7339C43.3091 50.2534 43.1724 50.7935 43.0835 51.354C42.9946 51.9146 42.9468 52.4683 42.9399 53.0151V54.3276C42.9468 54.8745 42.9946 55.4282 43.0835 55.9888C43.1724 56.5425 43.3091 57.0791 43.4937 57.5986C43.6782 58.1182 43.9141 58.6069 44.2012 59.0649C44.4883 59.5161 44.8301 59.9092 45.2266 60.2441C45.6162 60.5791 46.064 60.8457 46.5698 61.0439C47.0757 61.2354 47.6465 61.3311 48.2822 61.3311C48.5283 61.3311 48.7642 61.314 48.9897 61.2798C49.2222 61.2524 49.4443 61.208 49.6562 61.1465L52.6094 63.6484L53.9116 62.4077L51.3379 60.2646C51.7344 59.9297 52.0728 59.5366 52.353 59.0854C52.6401 58.6274 52.876 58.1387 53.0605 57.6191C53.2383 57.0996 53.3716 56.5596 53.4604 55.999C53.5493 55.4385 53.5972 54.8813 53.604 54.3276ZM51.7173 52.9946V54.3276C51.7104 54.7036 51.6865 55.0967 51.6455 55.5068C51.6113 55.9102 51.5464 56.3101 51.4507 56.7065C51.3481 57.103 51.2148 57.479 51.0508 57.8345C50.8867 58.1899 50.6782 58.501 50.4253 58.7676C50.1724 59.041 49.8682 59.2598 49.5127 59.4238C49.1641 59.5811 48.7539 59.6597 48.2822 59.6597C47.8174 59.6597 47.4072 59.5811 47.0518 59.4238C46.7031 59.2598 46.4023 59.041 46.1494 58.7676C45.8965 58.4941 45.6846 58.1797 45.5137 57.8242C45.3496 57.4688 45.2163 57.0928 45.1138 56.6963C45.0112 56.2998 44.936 55.8999 44.8882 55.4966C44.8472 55.0864 44.8267 54.6968 44.8267 54.3276V52.9946C44.8267 52.6255 44.8472 52.2393 44.8882 51.8359C44.936 51.4258 45.0112 51.0225 45.1138 50.626C45.2163 50.2363 45.3496 49.8638 45.5137 49.5083C45.6846 49.1528 45.8965 48.8384 46.1494 48.5649C46.4023 48.2983 46.7031 48.0864 47.0518 47.9292C47.4004 47.7651 47.8071 47.6831 48.272 47.6831C48.7437 47.6831 49.1538 47.7617 49.5024 47.9189C49.8579 48.0762 50.1621 48.2881 50.415 48.5547C50.668 48.8281 50.8765 49.1426 51.0405 49.498C51.2114 49.8535 51.3481 50.2261 51.4507 50.6157C51.5464 51.0122 51.6113 51.4155 51.6455 51.8257C51.6865 52.229 51.7104 52.6187 51.7173 52.9946ZM66.5846 46.1963H64.7492L64.7184 56.3066C64.7047 56.751 64.633 57.1782 64.5031 57.5884C64.3732 57.9985 64.1852 58.3608 63.9391 58.6753C63.6862 58.9966 63.3752 59.2529 63.006 59.4443C62.6369 59.6289 62.2096 59.7212 61.7243 59.7212C61.2389 59.7212 60.8083 59.6255 60.4323 59.4341C60.0631 59.2427 59.7555 58.9897 59.5094 58.6753C59.2565 58.3608 59.0617 57.9985 58.925 57.5884C58.7951 57.1782 58.7267 56.751 58.7199 56.3066L58.6789 46.1963H56.8742L56.8537 56.3066C56.8605 57.0039 56.9836 57.6602 57.2228 58.2754C57.4621 58.8838 57.7936 59.4136 58.2174 59.8647C58.6413 60.3228 59.1505 60.6816 59.7453 60.9414C60.34 61.2012 60.9997 61.3311 61.7243 61.3311C62.4352 61.3311 63.088 61.2012 63.6828 60.9414C64.2775 60.6748 64.7902 60.3125 65.2209 59.8545C65.6515 59.4033 65.9899 58.8735 66.236 58.2651C66.4821 57.6567 66.6051 57.0039 66.6051 56.3066L66.5846 46.1963ZM78.8782 54.2251V52.6152H72.6439V47.8164H79.8216V46.1963H70.7469V61.126H79.9139V59.5161H72.6439V54.2251H78.8782ZM92.3305 54.2251V52.6152H86.0962V47.8164H93.2739V46.1963H84.1992V61.126H93.3662V59.5161H86.0962V54.2251H92.3305ZM106.921 61.126V46.1963H105.004L104.973 57.332L99.1793 46.1963H97.2516V61.126H99.1691L99.1998 49.9697L104.993 61.126H106.921Z" fill="#891E3C"/>
<path d="M27.5512 21.6238C27.5512 22.5026 26.2879 23.2149 25.3946 23.2149C24.5013 23.2149 23.2288 22.8141 23.7771 21.6238C24.2062 20.6926 25.0405 20.0327 25.9338 20.0327C26.8271 20.0327 27.5512 20.7451 27.5512 21.6238Z" fill="#891E3C"/>
<path d="M16.768 25.8667C16.768 26.7455 15.5047 27.4579 14.6114 27.4579C13.7181 27.4579 12.4456 27.057 12.9939 25.8667C13.4229 24.9355 14.2573 24.2756 15.1506 24.2756C16.0439 24.2756 16.768 24.988 16.768 25.8667Z" fill="#891E3C"/>
<path d="M20.0029 32.2312C20.0029 33.11 18.7396 33.8224 17.8463 33.8224C16.953 33.8224 15.6805 33.4215 16.2288 32.2312C16.6578 31.3 17.4921 30.6401 18.3854 30.6401C19.2787 30.6401 20.0029 31.3525 20.0029 32.2312Z" fill="#891E3C"/>
<path d="M29.708 29.0489C29.708 29.9276 28.4447 30.64 27.5514 30.64C26.6581 30.64 25.3856 30.2391 25.9339 29.0489C26.3629 28.1176 27.1972 27.4578 28.0905 27.4578C28.9838 27.4578 29.708 28.1701 29.708 29.0489Z" fill="#891E3C"/>
</svg>
