<svg width="229" height="100" viewBox="0 0 229 100" fill="none" xmlns="http://www.w3.org/2000/svg">
<path d="M43.8479 19.6514C33.9675 18.2889 26.121 19.636 19.9891 22.3955M43.8479 50.3155H1.80063C-0.910938 48.9382 2.81174 30.1255 19.9891 22.3955M1.80063 88.1118C1.80063 88.1118 1.12236 96.6692 5.86946 98.8086H43.8479M2.35636 82.4069C3.71273 82.4069 9.81636 86.8611 15.92 88.1118C26.0927 86.1479 31.6405 82.4069 34.3532 82.4069C37.066 82.4069 43.8479 82.4069 43.8479 82.4069M1.80063 60.3002C3.1569 60.3002 5.74727 55.3084 9.13818 55.3084C12.5291 55.3084 13.2073 60.3002 17.9545 60.3002C22.7018 60.3002 22.8242 55.3084 26.2151 55.3084C29.606 55.3084 30.84 60.3002 33.5527 60.3002C36.2654 60.3002 37.7442 55.3084 40.4569 55.3084C43.1696 55.3084 43.8479 55.3084 43.8479 55.3084M43.8479 65.292C43.8479 65.292 6.54781 65.292 4.51327 65.292C2.47872 65.292 1.80063 77.415 4.51327 77.415C7.2259 77.415 43.8479 77.415 43.8479 77.415M167.833 19.6514H226.156L196.316 60.3002L226.156 98.8086H144.774M19.9891 22.3955L11.1727 6.99183L19.9891 2V6.99183L24.0582 9.13118C24.0582 9.13118 20.6673 11.9837 19.9891 11.9837" stroke="#891E3C" stroke-width="2"/>
<path d="M54.3054 45.3936H59.0837C59.7195 45.3867 60.3347 45.2876 60.9294 45.0962C61.531 44.9048 62.0608 44.6279 62.5188 44.2656C62.9768 43.9102 63.3425 43.4658 63.616 42.9326C63.8894 42.3994 64.0227 41.7842 64.0159 41.0869C64.0159 40.6426 63.9475 40.229 63.8108 39.8462C63.6809 39.4634 63.4963 39.1182 63.2571 38.8105C63.0315 38.5303 62.7444 38.2739 62.3958 38.0415C62.0471 37.8091 61.6848 37.6484 61.3088 37.5596V37.5288C61.6711 37.3716 61.9788 37.2041 62.2317 37.0264C62.4915 36.8486 62.7273 36.6299 62.9392 36.3701C63.1443 36.1172 63.3049 35.8301 63.4211 35.5088C63.5442 35.1875 63.6091 34.832 63.616 34.4424C63.6228 33.7451 63.4895 33.147 63.2161 32.6479C62.9426 32.1489 62.5769 31.7388 62.1189 31.4175C61.6609 31.0962 61.1379 30.8604 60.55 30.71C59.9622 30.5527 59.3606 30.4707 58.7454 30.4639H54.3054V45.3936ZM56.2126 38.4106H59.2375C59.6409 38.4243 60.0168 38.4927 60.3655 38.6157C60.7141 38.7388 61.0183 38.9131 61.2781 39.1387C61.5378 39.3711 61.7395 39.6514 61.8831 39.9795C62.0334 40.3076 62.1052 40.6836 62.0984 41.1074C62.0984 41.5244 62.0164 41.897 61.8523 42.2251C61.6951 42.5532 61.4797 42.8301 61.2063 43.0557C60.9329 43.2812 60.6184 43.459 60.2629 43.5889C59.9075 43.7119 59.5315 43.7769 59.135 43.7837H56.2126V38.4106ZM56.2126 36.8315V32.084H58.8069C59.176 32.0908 59.5349 32.1387 59.8835 32.2275C60.239 32.3164 60.5535 32.4531 60.8269 32.6377C61.0935 32.8291 61.3054 33.0718 61.4626 33.3657C61.6267 33.6597 61.7087 34.0151 61.7087 34.4321C61.7087 34.8218 61.6267 35.1636 61.4626 35.4575C61.2986 35.7515 61.0833 35.9976 60.8167 36.1958C60.55 36.4009 60.2458 36.5581 59.9041 36.6675C59.5623 36.77 59.2136 36.8247 58.8582 36.8315H56.2126ZM77.1503 30.4639H75.3149L75.2841 40.5742C75.2704 41.0186 75.1986 41.4458 75.0688 41.856C74.9389 42.2661 74.7509 42.6284 74.5048 42.9429C74.2519 43.2642 73.9408 43.5205 73.5717 43.7119C73.2025 43.8965 72.7753 43.9888 72.29 43.9888C71.8046 43.9888 71.3739 43.8931 70.998 43.7017C70.6288 43.5103 70.3212 43.2573 70.0751 42.9429C69.8222 42.6284 69.6274 42.2661 69.4906 41.856C69.3608 41.4458 69.2924 41.0186 69.2856 40.5742L69.2445 30.4639H67.4399L67.4193 40.5742C67.4262 41.2715 67.5492 41.9277 67.7885 42.543C68.0277 43.1514 68.3593 43.6812 68.7831 44.1323C69.2069 44.5903 69.7162 44.9492 70.3109 45.209C70.9057 45.4688 71.5653 45.5986 72.29 45.5986C73.0009 45.5986 73.6537 45.4688 74.2484 45.209C74.8432 44.9424 75.3559 44.5801 75.7865 44.1221C76.2172 43.6709 76.5556 43.1411 76.8017 42.5327C77.0478 41.9243 77.1708 41.2715 77.1708 40.5742L77.1503 30.4639ZM86.1729 39.3027L89.1055 45.3936H91.105L91.1153 45.2705L87.9468 38.8926C88.357 38.7148 88.733 38.4995 89.0748 38.2466C89.4166 37.9937 89.7105 37.7031 89.9566 37.375C90.2027 37.0469 90.3941 36.6812 90.5308 36.2778C90.6744 35.8745 90.7462 35.4302 90.7462 34.9448C90.7462 34.1929 90.6129 33.54 90.3463 32.9863C90.0865 32.4258 89.7276 31.9609 89.2696 31.5918C88.8048 31.2227 88.2647 30.9458 87.6495 30.7612C87.0342 30.5767 86.378 30.4775 85.6807 30.4639H81.3023V45.3936H83.189V39.3027H86.1729ZM83.189 37.7441V32.0225H85.6807C86.1387 32.0293 86.5592 32.0942 86.942 32.2173C87.3316 32.3403 87.6666 32.5215 87.9468 32.7607C88.2271 33.0068 88.4459 33.311 88.6031 33.6733C88.7603 34.0288 88.8389 34.4458 88.8389 34.9243C88.8389 35.3755 88.7569 35.7754 88.5928 36.124C88.4288 36.4658 88.2066 36.7563 87.9263 36.9956C87.6392 37.2349 87.3077 37.4194 86.9317 37.5493C86.5557 37.6724 86.1558 37.7373 85.732 37.7441H83.189ZM104.342 43.4351L104.311 37.9595H99.4714V39.5591H102.507L102.486 42.9121C102.329 43.1377 102.134 43.3223 101.902 43.4658C101.669 43.6025 101.42 43.7119 101.153 43.7939C100.886 43.876 100.61 43.9307 100.322 43.958C100.042 43.9854 99.7722 43.9956 99.5124 43.9888C99.0613 43.9819 98.6579 43.9033 98.3025 43.7529C97.947 43.5957 97.636 43.3872 97.3694 43.1274C97.0959 42.8677 96.8635 42.5669 96.6721 42.2251C96.4807 41.8833 96.3235 41.521 96.2004 41.1382C96.0774 40.7554 95.9851 40.3657 95.9236 39.9692C95.8689 39.5659 95.8381 39.1763 95.8313 38.8003V37.0469C95.8313 36.6777 95.8552 36.2949 95.9031 35.8984C95.9509 35.502 96.0295 35.1123 96.1389 34.7295C96.2483 34.3467 96.3884 33.9844 96.5593 33.6426C96.7302 33.2939 96.9455 32.9897 97.2053 32.73C97.4651 32.4702 97.7693 32.2651 98.1179 32.1147C98.4665 31.9575 98.8664 31.8789 99.3176 31.8789C99.7893 31.8789 100.203 31.9541 100.558 32.1045C100.914 32.248 101.221 32.4497 101.481 32.7095C101.734 32.9692 101.939 33.2837 102.096 33.6528C102.254 34.0151 102.37 34.4116 102.445 34.8423H104.322C104.26 34.145 104.096 33.5161 103.829 32.9556C103.563 32.3882 103.211 31.9028 102.773 31.4995C102.336 31.103 101.823 30.7988 101.235 30.5869C100.647 30.3682 100.005 30.2588 99.3074 30.2588C98.6784 30.2588 98.1111 30.3511 97.6052 30.5356C97.0993 30.7202 96.6482 30.9697 96.2517 31.2842C95.8484 31.6055 95.5032 31.9849 95.216 32.4224C94.9289 32.853 94.6897 33.3213 94.4983 33.8271C94.3069 34.333 94.1633 34.8628 94.0676 35.4165C93.9787 35.9634 93.9309 36.5137 93.9241 37.0674V38.8003C93.9309 39.3608 93.9856 39.918 94.0881 40.4717C94.1975 41.0186 94.3581 41.5415 94.57 42.0405C94.7751 42.5464 95.0315 43.0146 95.3391 43.4453C95.6467 43.876 96.0056 44.2485 96.4158 44.563C96.8259 44.8843 97.2873 45.1372 97.8 45.3218C98.3196 45.4995 98.8869 45.5918 99.5022 45.5986C100.111 45.6055 100.692 45.5371 101.245 45.3936C101.799 45.2568 102.315 45.0449 102.794 44.7578C103.074 44.5938 103.344 44.4023 103.604 44.1836C103.864 43.958 104.11 43.7085 104.342 43.4351ZM117.507 30.4639H115.672L115.641 40.5742C115.627 41.0186 115.556 41.4458 115.426 41.856C115.296 42.2661 115.108 42.6284 114.862 42.9429C114.609 43.2642 114.298 43.5205 113.929 43.7119C113.559 43.8965 113.132 43.9888 112.647 43.9888C112.162 43.9888 111.731 43.8931 111.355 43.7017C110.986 43.5103 110.678 43.2573 110.432 42.9429C110.179 42.6284 109.984 42.2661 109.848 41.856C109.718 41.4458 109.649 41.0186 109.642 40.5742L109.601 30.4639H107.797L107.776 40.5742C107.783 41.2715 107.906 41.9277 108.145 42.543C108.385 43.1514 108.716 43.6812 109.14 44.1323C109.564 44.5903 110.073 44.9492 110.668 45.209C111.263 45.4688 111.922 45.5986 112.647 45.5986C113.358 45.5986 114.011 45.4688 114.605 45.209C115.2 44.9424 115.713 44.5801 116.143 44.1221C116.574 43.6709 116.912 43.1411 117.159 42.5327C117.405 41.9243 117.528 41.2715 117.528 40.5742L117.507 30.4639ZM129.801 38.4927V36.8828H123.566V32.084H130.744V30.4639H121.669V45.3936H130.836V43.7837H123.566V38.4927H129.801ZM139.982 39.3027L142.915 45.3936H144.914L144.925 45.2705L141.756 38.8926C142.166 38.7148 142.542 38.4995 142.884 38.2466C143.226 37.9937 143.52 37.7031 143.766 37.375C144.012 37.0469 144.203 36.6812 144.34 36.2778C144.484 35.8745 144.555 35.4302 144.555 34.9448C144.555 34.1929 144.422 33.54 144.155 32.9863C143.896 32.4258 143.537 31.9609 143.079 31.5918C142.614 31.2227 142.074 30.9458 141.459 30.7612C140.843 30.5767 140.187 30.4775 139.49 30.4639H135.112V45.3936H136.998V39.3027H139.982ZM136.998 37.7441V32.0225H139.49C139.948 32.0293 140.368 32.0942 140.751 32.2173C141.141 32.3403 141.476 32.5215 141.756 32.7607C142.036 33.0068 142.255 33.311 142.412 33.6733C142.57 34.0288 142.648 34.4458 142.648 34.9243C142.648 35.3755 142.566 35.7754 142.402 36.124C142.238 36.4658 142.016 36.7563 141.736 36.9956C141.448 37.2349 141.117 37.4194 140.741 37.5493C140.365 37.6724 139.965 37.7373 139.541 37.7441H136.998Z" fill="#891E3C"/>
<path d="M64.1697 67.1199V65.8074C64.1628 65.2605 64.115 64.7068 64.0261 64.1462C63.9373 63.5789 63.804 63.0354 63.6262 62.5159C63.4417 61.9963 63.2058 61.511 62.9187 61.0598C62.6384 60.6018 62.3035 60.2053 61.9138 59.8704C61.5173 59.5354 61.0627 59.2722 60.55 59.0808C60.0442 58.8826 59.4734 58.7834 58.8376 58.7834C58.2019 58.7834 57.6277 58.8826 57.115 59.0808C56.6091 59.2722 56.1614 59.5354 55.7717 59.8704C55.3752 60.2122 55.0369 60.6121 54.7566 61.0701C54.4763 61.5212 54.2439 62.0066 54.0593 62.5261C53.8748 63.0457 53.738 63.5857 53.6492 64.1462C53.5603 64.7068 53.5125 65.2605 53.5056 65.8074V67.1199C53.5125 67.6667 53.5603 68.2205 53.6492 68.781C53.738 69.3347 53.8748 69.8713 54.0593 70.3909C54.2439 70.9104 54.4797 71.3992 54.7668 71.8572C55.054 72.3083 55.3958 72.7014 55.7922 73.0364C56.1819 73.3713 56.6296 73.6379 57.1355 73.8362C57.6414 74.0276 58.2122 74.1233 58.8479 74.1233C59.094 74.1233 59.3298 74.1062 59.5554 74.072C59.7878 74.0447 60.01 74.0002 60.2219 73.9387L63.175 76.4407L64.4773 75.2L61.9036 73.0569C62.3 72.7219 62.6384 72.3289 62.9187 71.8777C63.2058 71.4197 63.4417 70.9309 63.6262 70.4114C63.804 69.8918 63.9373 69.3518 64.0261 68.7913C64.115 68.2307 64.1628 67.6736 64.1697 67.1199ZM62.283 65.7869V67.1199C62.2761 67.4958 62.2522 67.8889 62.2112 68.2991C62.177 68.7024 62.1121 69.1023 62.0164 69.4988C61.9138 69.8953 61.7805 70.2712 61.6165 70.6267C61.4524 70.9822 61.2439 71.2932 60.991 71.5598C60.738 71.8333 60.4338 72.052 60.0784 72.2161C59.7297 72.3733 59.3196 72.4519 58.8479 72.4519C58.3831 72.4519 57.9729 72.3733 57.6174 72.2161C57.2688 72.052 56.968 71.8333 56.7151 71.5598C56.4622 71.2864 56.2502 70.9719 56.0793 70.6165C55.9153 70.261 55.782 69.885 55.6794 69.4885C55.5769 69.092 55.5017 68.6921 55.4539 68.2888C55.4128 67.8787 55.3923 67.489 55.3923 67.1199V65.7869C55.3923 65.4177 55.4128 65.0315 55.4539 64.6282C55.5017 64.218 55.5769 63.8147 55.6794 63.4182C55.782 63.0286 55.9153 62.656 56.0793 62.3005C56.2502 61.9451 56.4622 61.6306 56.7151 61.3572C56.968 61.0906 57.2688 60.8787 57.6174 60.7214C57.9661 60.5574 58.3728 60.4753 58.8376 60.4753C59.3093 60.4753 59.7195 60.554 60.0681 60.7112C60.4236 60.8684 60.7278 61.0803 60.9807 61.3469C61.2336 61.6204 61.4421 61.9348 61.6062 62.2903C61.7771 62.6458 61.9138 63.0183 62.0164 63.408C62.1121 63.8044 62.177 64.2078 62.2112 64.6179C62.2522 65.0212 62.2761 65.4109 62.283 65.7869ZM77.1503 58.9885H75.3149L75.2841 69.0989C75.2704 69.5432 75.1986 69.9705 75.0688 70.3806C74.9389 70.7908 74.7509 71.1531 74.5048 71.4675C74.2519 71.7888 73.9408 72.0452 73.5717 72.2366C73.2025 72.4211 72.7753 72.5134 72.29 72.5134C71.8046 72.5134 71.3739 72.4177 70.998 72.2263C70.6288 72.0349 70.3212 71.782 70.0751 71.4675C69.8222 71.1531 69.6274 70.7908 69.4906 70.3806C69.3608 69.9705 69.2924 69.5432 69.2856 69.0989L69.2445 58.9885H67.4399L67.4193 69.0989C67.4262 69.7961 67.5492 70.4524 67.7885 71.0676C68.0277 71.676 68.3593 72.2058 68.7831 72.657C69.2069 73.115 69.7162 73.4739 70.3109 73.7336C70.9057 73.9934 71.5653 74.1233 72.29 74.1233C73.0009 74.1233 73.6537 73.9934 74.2484 73.7336C74.8432 73.467 75.3559 73.1047 75.7865 72.6467C76.2172 72.1956 76.5556 71.6658 76.8017 71.0574C77.0478 70.449 77.1708 69.7961 77.1708 69.0989L77.1503 58.9885ZM89.4439 67.0173V65.4075H83.2095V60.6086H90.3873V58.9885H81.3126V73.9182H90.4796V72.3083H83.2095V67.0173H89.4439ZM102.896 67.0173V65.4075H96.6618V60.6086H103.84V58.9885H94.7649V73.9182H103.932V72.3083H96.6618V67.0173H102.896ZM117.487 73.9182V58.9885H115.569L115.538 70.1243L109.745 58.9885H107.817V73.9182H109.735L109.766 62.762L115.559 73.9182H117.487Z" fill="#891E3C"/>
<path d="M34.3977 28.3854C34.3977 29.567 32.8086 30.5248 31.685 30.5248C30.5613 30.5248 28.9608 29.9858 29.6505 28.3854C30.1901 27.1333 31.2395 26.2461 32.3632 26.2461C33.4868 26.2461 34.3977 27.2039 34.3977 28.3854Z" fill="#891E3C"/>
<path d="M20.834 34.0903C20.834 35.2718 19.2449 36.2296 18.1213 36.2296C16.9976 36.2296 15.397 35.6906 16.0867 34.0903C16.6264 32.8381 17.6758 31.9509 18.7995 31.9509C19.9231 31.9509 20.834 32.9087 20.834 34.0903Z" fill="#891E3C"/>
<path d="M24.9031 42.6477C24.9031 43.8292 23.314 44.787 22.1904 44.787C21.0667 44.787 19.4661 44.248 20.1558 42.6477C20.6954 41.3955 21.7449 40.5083 22.8685 40.5083C23.9922 40.5083 24.9031 41.4661 24.9031 42.6477Z" fill="#891E3C"/>
<path d="M37.1104 38.3691C37.1104 39.5506 35.5213 40.5084 34.3976 40.5084C33.274 40.5084 31.6734 39.9694 32.3631 38.3691C32.9027 37.117 33.9522 36.2297 35.0758 36.2297C36.1995 36.2297 37.1104 37.1876 37.1104 38.3691Z" fill="#891E3C"/>
</svg>
